<svg width="825" height="222" viewBox="0 0 825 222" xmlns="http://www.w3.org/2000/svg"><title>Qonto purple</title><g fill="none" fill-rule="evenodd"><path d="M241.52 101.84c0 6.4.64 12.36 1.92 17.88 1.28 5.52 3.36 10.32 6.24 14.4 2.88 4.08 6.6 7.28 11.16 9.6 4.56 2.32 10.04 3.48 16.44 3.48 6.08 0 11.68-1.04 16.8-3.12 5.12-2.08 9.04-4.24 11.76-6.48V58.88c-2.24-.64-5.24-1.2-9-1.68s-9-.72-15.72-.72c-12 0-21.6 3.92-28.8 11.76-7.2 7.84-10.8 19.04-10.8 33.6zM222.68 74.6c2.96-8.08 7.16-14.92 12.6-20.52 5.44-5.6 12-9.92 19.68-12.96 7.68-3.04 16.32-4.56 25.92-4.56 10.4 0 19.56.76 27.48 2.28 7.92 1.52 14.52 2.92 19.8 4.2v174.078l-22.32 4.09V158.48c-2.72 1.76-6.84 3.6-12.36 5.52-5.52 1.92-11.88 2.88-19.08 2.88-8.96 0-16.92-1.6-23.88-4.8-6.96-3.2-12.84-7.68-17.64-13.44-4.8-5.76-8.44-12.64-10.92-20.64-2.48-8-3.72-16.72-3.72-26.16 0-10.08 1.48-19.16 4.44-27.24zm247.04 27c0 9.92-1.44 18.88-4.32 26.88-2.88 8-6.92 14.88-12.12 20.64-5.2 5.76-11.4 10.2-18.6 13.32-7.2 3.12-15.04 4.68-23.52 4.68s-16.32-1.56-23.52-4.68c-7.2-3.12-13.4-7.56-18.6-13.32-5.2-5.76-9.24-12.64-12.12-20.64-2.88-8-4.32-16.96-4.32-26.88 0-9.76 1.44-18.68 4.32-26.76 2.88-8.08 6.92-15 12.12-20.76 5.2-5.76 11.4-10.2 18.6-13.32 7.2-3.12 15.04-4.68 23.52-4.68s16.32 1.56 23.52 4.68c7.2 3.12 13.4 7.56 18.6 13.32 5.2 5.76 9.24 12.68 12.12 20.76 2.88 8.08 4.32 17 4.32 26.76zm-23.28 0c0-14.08-3.16-25.24-9.48-33.48-6.32-8.24-14.92-12.36-25.8-12.36s-19.48 4.12-25.8 12.36c-6.32 8.24-9.48 19.4-9.48 33.48 0 14.08 3.16 25.24 9.48 33.48 6.32 8.24 14.92 12.36 25.8 12.36s19.48-4.12 25.8-12.36c6.32-8.24 9.48-19.4 9.48-33.48zm47.72-58.8c5.12-1.28 11.92-2.64 20.4-4.08 8.48-1.44 18.24-2.16 29.28-2.16 9.92 0 18.16 1.4 24.72 4.2 6.56 2.8 11.8 6.72 15.72 11.76s6.68 11.08 8.28 18.12c1.6 7.04 2.4 14.8 2.4 23.28V164h-22.32V98.72c0-7.68-.52-14.24-1.56-19.68-1.04-5.44-2.76-9.84-5.16-13.2-2.4-3.36-5.6-5.8-9.6-7.32-4-1.52-8.96-2.28-14.88-2.28-2.4 0-4.88.08-7.44.24-2.56.16-5 .36-7.32.6-2.32.24-4.4.52-6.24.84-1.84.32-3.16.56-3.96.72V164h-22.32V42.8zm151.64-3.6h47.28v18.72H645.8v57.6c0 6.24.48 11.4 1.44 15.48s2.4 7.28 4.32 9.6c1.92 2.32 4.32 3.96 7.2 4.92s6.24 1.44 10.08 1.44c6.72 0 12.12-.76 16.2-2.28 4.08-1.52 6.92-2.6 8.52-3.24l4.32 18.48c-2.24 1.12-6.16 2.52-11.76 4.2-5.6 1.68-12 2.52-19.2 2.52-8.48 0-15.48-1.08-21-3.24s-9.96-5.4-13.32-9.72c-3.36-4.32-5.72-9.64-7.08-15.96-1.36-6.32-2.04-13.64-2.04-21.96V4.4L645.8.56V39.2zm178.76 62.4c0 9.92-1.44 18.88-4.32 26.88-2.88 8-6.92 14.88-12.12 20.64-5.2 5.76-11.4 10.2-18.6 13.32-7.2 3.12-15.04 4.68-23.52 4.68s-16.32-1.56-23.52-4.68c-7.2-3.12-13.4-7.56-18.6-13.32-5.2-5.76-9.24-12.64-12.12-20.64-2.88-8-4.32-16.96-4.32-26.88 0-9.76 1.44-18.68 4.32-26.76 2.88-8.08 6.92-15 12.12-20.76 5.2-5.76 11.4-10.2 18.6-13.32 7.2-3.12 15.04-4.68 23.52-4.68s16.32 1.56 23.52 4.68c7.2 3.12 13.4 7.56 18.6 13.32 5.2 5.76 9.24 12.68 12.12 20.76 2.88 8.08 4.32 17 4.32 26.76zm-23.28 0c0-14.08-3.16-25.24-9.48-33.48-6.32-8.24-14.92-12.36-25.8-12.36s-19.48 4.12-25.8 12.36c-6.32 8.24-9.48 19.4-9.48 33.48 0 14.08 3.16 25.24 9.48 33.48 6.32 8.24 14.92 12.36 25.8 12.36s19.48-4.12 25.8-12.36c6.32-8.24 9.48-19.4 9.48-33.48z" fill="#ffffff"/><path d="M22.18 73.893a75.656 75.656 0 0 0 49.57 22.324 76.6 76.6 0 0 0-22.18-49.894A75.655 75.655 0 0 0 0 24a76.55 76.55 0 0 0 22.18 49.893zm107.39 0A75.656 75.656 0 0 1 80 96.217a76.6 76.6 0 0 1 22.18-49.894A75.655 75.655 0 0 1 151.75 24a76.55 76.55 0 0 1-22.18 49.893zm0 52.431A75.656 75.656 0 0 0 80 104a76.6 76.6 0 0 0 22.18 49.894 75.655 75.655 0 0 0 49.57 22.323 76.55 76.55 0 0 0-22.18-49.893zm-107.39 0c13.187-13.326 31.11-21.29 49.828-22.332-1.013 18.791-9.167 36.56-22.438 49.902A75.655 75.655 0 0 1 0 176.217a76.55 76.55 0 0 1 22.18-49.893z" fill="#ffffff"/></g></svg>